<svg width="607" height="345" viewBox="0 0 607 345" fill="none" xmlns="http://www.w3.org/2000/svg">
<path d="M1.00643 1.58137C34.8156 -2.31627 99.3507 10.0566 87.0177 90.7291C71.6014 191.57 77.798 194.139 220.216 202.1C362.634 210.061 377.985 271.129 370.513 314.264C363.041 357.4 250.041 361.391 254.979 268.31C259.918 175.228 465.637 128.582 566.717 274.808" stroke="url(#paint0_linear_0_1)"/>
<path fill-rule="evenodd" clip-rule="evenodd" d="M565.325 310.194L562.338 309.915L564.863 282.901C564.464 282.79 564.077 282.652 563.705 282.488L548.587 303.607L546.148 301.861L561.217 280.81C560.894 280.496 560.596 280.157 560.327 279.796L536.378 291.418L535.069 288.719L558.981 277.114C558.767 276.389 558.648 275.627 558.637 274.842L531.704 271.975L532.022 268.992L559.12 271.877C559.283 271.415 559.484 270.972 559.719 270.553L537.208 254.884L538.921 252.421L561.634 268.23C561.981 267.935 562.351 267.668 562.742 267.432L550.274 242.194L552.964 240.866L565.556 266.355C565.84 266.301 566.129 266.262 566.421 266.237L569.04 238.228L572.027 238.507L569.408 266.516C569.967 266.671 570.501 266.88 571.005 267.137L588.057 243.316L590.497 245.062L573.393 268.955C573.636 269.219 573.862 269.499 574.07 269.792L599.844 257.284L601.154 259.983L575.348 272.506C575.446 272.872 575.521 273.246 575.569 273.628L603.617 276.613L603.3 279.597L575.418 276.629C575.339 276.968 575.241 277.299 575.124 277.62L598.016 293.554L596.302 296.016L573.608 280.22C573.36 280.511 573.093 280.784 572.81 281.038L584.854 305.418L582.164 306.747L570.246 282.621C569.491 282.919 568.685 283.111 567.85 283.18L565.325 310.194Z" fill="#83A17D"/>
<defs>
<linearGradient id="paint0_linear_0_1" x1="677.91" y1="372.715" x2="64.3186" y2="46.2372" gradientUnits="userSpaceOnUse">
<stop/>
<stop offset="0.553176" stop-color="white"/>
<stop offset="1" stop-opacity="0"/>
</linearGradient>
</defs>
</svg>
